<mxfile version="13.5.4" type="github" host="app.diagrams.net" modified="2020-07-29T06:01:41.353Z" agent="5.0 (Windows NT 10.0; Win64; x64) AppleWebKit/537.36 (KHTML, like Gecko) Chrome/70.0.3538.102 Safari/537.36 Edge/18.19041" etag="s0Aq6E5JcqJT6jMVQ2d4">
  <diagram id="Yhz9viDxVkzFO5v1KCu0" name="Страница 1">
    <mxGraphModel grid="1" dx="1422" dy="1971" gridSize="10" guides="1" tooltips="1" connect="1" arrows="1" fold="1" page="1" pageScale="1" pageWidth="827" pageHeight="1169" math="0" shadow="0">
      <root>
        <mxCell id="0" />
        <mxCell id="1" parent="0" />
        <mxCell id="ScD8MDGdp0oU3InxM7zO-1" value="Системный подход к изучению организации" parent="1" style="rounded=0;whiteSpace=wrap;html=1;fillColor=#fff2cc;strokeColor=#d6b656;" vertex="1">
          <mxGeometry as="geometry" x="40" y="-1120" width="120" height="60" />
        </mxCell>
        <mxCell id="ScD8MDGdp0oU3InxM7zO-2" value="" parent="1" style="endArrow=classic;html=1;" edge="1">
          <mxGeometry as="geometry" width="50" height="50" relative="1">
            <mxPoint as="sourcePoint" x="250" y="-1090" />
            <mxPoint as="targetPoint" x="250" y="-1090" />
            <Array as="points">
              <mxPoint x="160" y="-1090" />
            </Array>
          </mxGeometry>
        </mxCell>
        <mxCell id="ScD8MDGdp0oU3InxM7zO-3" value="Теория систем" parent="1" style="rounded=0;whiteSpace=wrap;html=1;fillColor=#fff2cc;strokeColor=#d6b656;" vertex="1">
          <mxGeometry as="geometry" x="260" y="-1120" width="120" height="60" />
        </mxCell>
        <mxCell id="ScD8MDGdp0oU3InxM7zO-5" value="Характеристика это не есть&lt;br&gt;&amp;nbsp;набор каких-то руководств или&amp;nbsp;&lt;br&gt;принципов для управляющий" parent="1" style="text;html=1;align=center;verticalAlign=middle;resizable=0;points=[];autosize=1;fillColor=#e1d5e7;strokeColor=#9673a6;" vertex="1">
          <mxGeometry as="geometry" y="-1045" width="190" height="50" />
        </mxCell>
        <mxCell id="ScD8MDGdp0oU3InxM7zO-11" value="" parent="1" style="edgeStyle=orthogonalEdgeStyle;rounded=0;orthogonalLoop=1;jettySize=auto;html=1;" edge="1" source="ScD8MDGdp0oU3InxM7zO-7">
          <mxGeometry as="geometry" relative="1">
            <mxPoint as="targetPoint" x="310" y="-850" />
          </mxGeometry>
        </mxCell>
        <mxCell id="ScD8MDGdp0oU3InxM7zO-7" value="Характеристика&lt;br&gt;это концепция&lt;br&gt;&amp;nbsp;в соответствии с которой&amp;nbsp;&lt;br&gt;менеджеры должны&lt;br&gt;&amp;nbsp;рассматривать организаци&lt;br&gt;ю как открытую&amp;nbsp;&lt;br&gt;систему взаимосвязанных частей&lt;br&gt;, которая пытается достигнуть&amp;nbsp;&lt;br&gt;разнообразных целей&amp;nbsp;&lt;br&gt;в изменяющейся внешней среде" parent="1" style="text;html=1;align=center;verticalAlign=middle;resizable=0;points=[];autosize=1;fillColor=#e1d5e7;strokeColor=#9673a6;" vertex="1">
          <mxGeometry as="geometry" x="210" y="-1045" width="200" height="150" />
        </mxCell>
        <mxCell id="ScD8MDGdp0oU3InxM7zO-10" value="Ключевые положения теории систем" parent="1" style="whiteSpace=wrap;html=1;strokeColor=#d6b656;fillColor=#fff2cc;" vertex="1">
          <mxGeometry as="geometry" x="250" y="-850" width="120" height="60" />
        </mxCell>
        <mxCell id="ScD8MDGdp0oU3InxM7zO-17" value="" parent="1" style="edgeStyle=orthogonalEdgeStyle;rounded=0;orthogonalLoop=1;jettySize=auto;html=1;" edge="1" source="ScD8MDGdp0oU3InxM7zO-12">
          <mxGeometry as="geometry" relative="1">
            <mxPoint as="targetPoint" x="310" y="-620" />
          </mxGeometry>
        </mxCell>
        <mxCell id="ScD8MDGdp0oU3InxM7zO-12" value="Важнейшие принципы системного подхода" parent="1" style="whiteSpace=wrap;html=1;strokeColor=#d6b656;fillColor=#fff2cc;" vertex="1">
          <mxGeometry as="geometry" x="250" y="-730" width="120" height="60" />
        </mxCell>
        <mxCell id="ScD8MDGdp0oU3InxM7zO-15" value="" parent="1" style="endArrow=classic;html=1;exitX=0.5;exitY=1;exitDx=0;exitDy=0;entryX=0.5;entryY=0;entryDx=0;entryDy=0;" edge="1" source="ScD8MDGdp0oU3InxM7zO-10" target="ScD8MDGdp0oU3InxM7zO-12">
          <mxGeometry as="geometry" width="50" height="50" relative="1">
            <mxPoint as="sourcePoint" x="390" y="-760" />
            <mxPoint as="targetPoint" x="440" y="-810" />
          </mxGeometry>
        </mxCell>
        <mxCell id="ScD8MDGdp0oU3InxM7zO-19" value="" parent="1" style="edgeStyle=orthogonalEdgeStyle;rounded=0;orthogonalLoop=1;jettySize=auto;html=1;" edge="1" source="ScD8MDGdp0oU3InxM7zO-16">
          <mxGeometry as="geometry" relative="1">
            <mxPoint as="targetPoint" x="310" y="-540" />
          </mxGeometry>
        </mxCell>
        <mxCell id="ScD8MDGdp0oU3InxM7zO-16" value="Система" parent="1" style="whiteSpace=wrap;html=1;strokeColor=#d6b656;fillColor=#fff2cc;" vertex="1">
          <mxGeometry as="geometry" x="250" y="-614" width="120" height="34" />
        </mxCell>
        <mxCell id="ScD8MDGdp0oU3InxM7zO-18" value="Основные системные принципы" parent="1" style="whiteSpace=wrap;html=1;strokeColor=#d6b656;fillColor=#fff2cc;" vertex="1">
          <mxGeometry as="geometry" x="250" y="-540" width="120" height="50" />
        </mxCell>
        <mxCell id="ScD8MDGdp0oU3InxM7zO-23" value="" parent="1" style="edgeStyle=orthogonalEdgeStyle;rounded=0;orthogonalLoop=1;jettySize=auto;html=1;" edge="1" source="ScD8MDGdp0oU3InxM7zO-20">
          <mxGeometry as="geometry" relative="1">
            <mxPoint as="targetPoint" x="310" y="-330" />
          </mxGeometry>
        </mxCell>
        <mxCell id="ScD8MDGdp0oU3InxM7zO-20" value="Характеристика 1)целостности принципиальная несводимость свойств системы 2)структурности 3)взаимозависимости структуры и среды 4)иерархичности 5) множественного описания каждой системы" parent="1" style="whiteSpace=wrap;html=1;strokeColor=#9673a6;fillColor=#e1d5e7;" vertex="1">
          <mxGeometry as="geometry" x="210" y="-480" width="200" height="120" />
        </mxCell>
        <mxCell id="ScD8MDGdp0oU3InxM7zO-22" value="Организация как социально экономическая система" parent="1" style="whiteSpace=wrap;html=1;strokeColor=#d6b656;fillColor=#fff2cc;" vertex="1">
          <mxGeometry as="geometry" x="250" y="-330" width="120" height="60" />
        </mxCell>
        <mxCell id="ScD8MDGdp0oU3InxM7zO-27" value="" parent="1" style="edgeStyle=orthogonalEdgeStyle;rounded=0;orthogonalLoop=1;jettySize=auto;html=1;" edge="1" source="ScD8MDGdp0oU3InxM7zO-24" target="ScD8MDGdp0oU3InxM7zO-26">
          <mxGeometry as="geometry" relative="1" />
        </mxCell>
        <mxCell id="ScD8MDGdp0oU3InxM7zO-24" value="Характеристика подсистемой является выделенная часть системы с характерными особенностями и взаимосвязанная с другими частями систьемы" parent="1" style="whiteSpace=wrap;html=1;strokeColor=#9673a6;fillColor=#e1d5e7;" vertex="1">
          <mxGeometry as="geometry" x="210" y="-260" width="210" height="110" />
        </mxCell>
        <mxCell id="ScD8MDGdp0oU3InxM7zO-29" value="" parent="1" style="edgeStyle=orthogonalEdgeStyle;rounded=0;orthogonalLoop=1;jettySize=auto;html=1;" edge="1" source="ScD8MDGdp0oU3InxM7zO-26" target="ScD8MDGdp0oU3InxM7zO-28">
          <mxGeometry as="geometry" relative="1" />
        </mxCell>
        <mxCell id="ScD8MDGdp0oU3InxM7zO-26" value="общие критерии вы выделения подсистем в СЭС" parent="1" style="whiteSpace=wrap;html=1;strokeColor=#d6b656;fillColor=#fff2cc;" vertex="1">
          <mxGeometry as="geometry" x="255" y="-120" width="120" height="70" />
        </mxCell>
        <mxCell id="ScD8MDGdp0oU3InxM7zO-28" value="Системные признаки СЭС&amp;nbsp;" parent="1" style="whiteSpace=wrap;html=1;strokeColor=#d6b656;fillColor=#fff2cc;" vertex="1">
          <mxGeometry as="geometry" x="255" y="-20" width="120" height="60" />
        </mxCell>
      </root>
    </mxGraphModel>
  </diagram>
</mxfile>
